<mxfile host="app.diagrams.net" modified="2024-01-26T18:09:36.866Z" agent="Mozilla/5.0 (Windows NT 10.0; Win64; x64) AppleWebKit/537.36 (KHTML, like Gecko) Chrome/120.0.0.0 Safari/537.36" version="23.0.2" etag="GhtQcM8ubZp1rCpqIj92" type="github">
  <diagram name="Page-1" id="YGAgN_xn007ryQe0QgX8">
    <mxGraphModel>
      <root>
        <mxCell id="0" />
        <mxCell id="1" parent="0" />
      </root>
    </mxGraphModel>
  </diagram>
</mxfile>
